<svg version="1.1" xmlns="http://www.w3.org/2000/svg" xmlns:xlink="http://www.w3.org/1999/xlink" width="1156" height="764"><defs><clipPath id="vqEUueasCoHF"><path fill="none" stroke="none" d=" M 0 0 L 1156 0 L 1156 764 L 0 764 L 0 0 Z"/></clipPath></defs><g transform="scale(1,1)" clip-path="url(#vqEUueasCoHF)"><g><rect fill="rgb(255,255,255)" stroke="none" x="0" y="0" width="1156" height="764" fill-opacity="1"/><path fill="none" stroke="rgb(192,192,192)" paint-order="fill stroke markers" d=" M 56.5 0.5 L 56.5 764.5 M 56.5 0.5 L 56.5 764.5 M 116.5 0.5 L 116.5 764.5 M 175.5 0.5 L 175.5 764.5 M 235.5 0.5 L 235.5 764.5 M 294.5 0.5 L 294.5 764.5 M 354.5 0.5 L 354.5 764.5 M 414.5 0.5 L 414.5 764.5 M 473.5 0.5 L 473.5 764.5 M 593.5 0.5 L 593.5 764.5 M 652.5 0.5 L 652.5 764.5 M 712.5 0.5 L 712.5 764.5 M 771.5 0.5 L 771.5 764.5 M 831.5 0.5 L 831.5 764.5 M 891.5 0.5 L 891.5 764.5 M 950.5 0.5 L 950.5 764.5 M 1010.5 0.5 L 1010.5 764.5 M 1069.5 0.5 L 1069.5 764.5 M 1129.5 0.5 L 1129.5 764.5" stroke-opacity="1" stroke-linecap="round" stroke-linejoin="round" stroke-miterlimit="10"/><path fill="none" stroke="rgb(192,192,192)" paint-order="fill stroke markers" d=" M 8.5 0.5 L 8.5 764.5 M 20.5 0.5 L 20.5 764.5 M 32.5 0.5 L 32.5 764.5 M 44.5 0.5 L 44.5 764.5 M 68.5 0.5 L 68.5 764.5 M 80.5 0.5 L 80.5 764.5 M 92.5 0.5 L 92.5 764.5 M 104.5 0.5 L 104.5 764.5 M 128.5 0.5 L 128.5 764.5 M 140.5 0.5 L 140.5 764.5 M 151.5 0.5 L 151.5 764.5 M 163.5 0.5 L 163.5 764.5 M 187.5 0.5 L 187.5 764.5 M 199.5 0.5 L 199.5 764.5 M 211.5 0.5 L 211.5 764.5 M 223.5 0.5 L 223.5 764.5 M 247.5 0.5 L 247.5 764.5 M 259.5 0.5 L 259.5 764.5 M 271.5 0.5 L 271.5 764.5 M 283.5 0.5 L 283.5 764.5 M 306.5 0.5 L 306.5 764.5 M 318.5 0.5 L 318.5 764.5 M 330.5 0.5 L 330.5 764.5 M 342.5 0.5 L 342.5 764.5 M 366.5 0.5 L 366.5 764.5 M 378.5 0.5 L 378.5 764.5 M 390.5 0.5 L 390.5 764.5 M 402.5 0.5 L 402.5 764.5 M 426.5 0.5 L 426.5 764.5 M 438.5 0.5 L 438.5 764.5 M 449.5 0.5 L 449.5 764.5 M 461.5 0.5 L 461.5 764.5 M 485.5 0.5 L 485.5 764.5 M 497.5 0.5 L 497.5 764.5 M 509.5 0.5 L 509.5 764.5 M 521.5 0.5 L 521.5 764.5 M 545.5 0.5 L 545.5 764.5 M 557.5 0.5 L 557.5 764.5 M 569.5 0.5 L 569.5 764.5 M 581.5 0.5 L 581.5 764.5 M 604.5 0.5 L 604.5 764.5 M 616.5 0.5 L 616.5 764.5 M 628.5 0.5 L 628.5 764.5 M 640.5 0.5 L 640.5 764.5 M 664.5 0.5 L 664.5 764.5 M 676.5 0.5 L 676.5 764.5 M 688.5 0.5 L 688.5 764.5 M 700.5 0.5 L 700.5 764.5 M 724.5 0.5 L 724.5 764.5 M 736.5 0.5 L 736.5 764.5 M 748.5 0.5 L 748.5 764.5 M 759.5 0.5 L 759.5 764.5 M 783.5 0.5 L 783.5 764.5 M 795.5 0.5 L 795.5 764.5 M 807.5 0.5 L 807.5 764.5 M 819.5 0.5 L 819.5 764.5 M 843.5 0.5 L 843.5 764.5 M 855.5 0.5 L 855.5 764.5 M 867.5 0.5 L 867.5 764.5 M 879.5 0.5 L 879.5 764.5 M 902.5 0.5 L 902.5 764.5 M 914.5 0.5 L 914.5 764.5 M 926.5 0.5 L 926.5 764.5 M 938.5 0.5 L 938.5 764.5 M 962.5 0.5 L 962.5 764.5 M 974.5 0.5 L 974.5 764.5 M 986.5 0.5 L 986.5 764.5 M 998.5 0.5 L 998.5 764.5 M 1022.5 0.5 L 1022.5 764.5 M 1034.5 0.5 L 1034.5 764.5 M 1046.5 0.5 L 1046.5 764.5 M 1057.5 0.5 L 1057.5 764.5 M 1081.5 0.5 L 1081.5 764.5 M 1093.5 0.5 L 1093.5 764.5 M 1105.5 0.5 L 1105.5 764.5 M 1117.5 0.5 L 1117.5 764.5 M 1141.5 0.5 L 1141.5 764.5 M 1153.5 0.5 L 1153.5 764.5" stroke-opacity="0.23529411764705882" stroke-linecap="round" stroke-linejoin="round" stroke-miterlimit="10"/><path fill="none" stroke="rgb(192,192,192)" paint-order="fill stroke markers" d=" M 0.5 57.5 L 1156.5 57.5 M 0.5 57.5 L 1156.5 57.5 M 0.5 117.5 L 1156.5 117.5 M 0.5 177.5 L 1156.5 177.5 M 0.5 236.5 L 1156.5 236.5 M 0.5 296.5 L 1156.5 296.5 M 0.5 355.5 L 1156.5 355.5 M 0.5 475.5 L 1156.5 475.5 M 0.5 534.5 L 1156.5 534.5 M 0.5 594.5 L 1156.5 594.5 M 0.5 653.5 L 1156.5 653.5 M 0.5 713.5 L 1156.5 713.5" stroke-opacity="1" stroke-linecap="round" stroke-linejoin="round" stroke-miterlimit="10"/><path fill="none" stroke="rgb(192,192,192)" paint-order="fill stroke markers" d=" M 0.5 10.5 L 1156.5 10.5 M 0.5 22.5 L 1156.5 22.5 M 0.5 34.5 L 1156.5 34.5 M 0.5 45.5 L 1156.5 45.5 M 0.5 69.5 L 1156.5 69.5 M 0.5 81.5 L 1156.5 81.5 M 0.5 93.5 L 1156.5 93.5 M 0.5 105.5 L 1156.5 105.5 M 0.5 129.5 L 1156.5 129.5 M 0.5 141.5 L 1156.5 141.5 M 0.5 153.5 L 1156.5 153.5 M 0.5 165.5 L 1156.5 165.5 M 0.5 189.5 L 1156.5 189.5 M 0.5 200.5 L 1156.5 200.5 M 0.5 212.5 L 1156.5 212.5 M 0.5 224.5 L 1156.5 224.5 M 0.5 248.5 L 1156.5 248.5 M 0.5 260.5 L 1156.5 260.5 M 0.5 272.5 L 1156.5 272.5 M 0.5 284.5 L 1156.5 284.5 M 0.5 308.5 L 1156.5 308.5 M 0.5 320.5 L 1156.5 320.5 M 0.5 332.5 L 1156.5 332.5 M 0.5 343.5 L 1156.5 343.5 M 0.5 367.5 L 1156.5 367.5 M 0.5 379.5 L 1156.5 379.5 M 0.5 391.5 L 1156.5 391.5 M 0.5 403.5 L 1156.5 403.5 M 0.5 427.5 L 1156.5 427.5 M 0.5 439.5 L 1156.5 439.5 M 0.5 451.5 L 1156.5 451.5 M 0.5 463.5 L 1156.5 463.5 M 0.5 487.5 L 1156.5 487.5 M 0.5 498.5 L 1156.5 498.5 M 0.5 510.5 L 1156.5 510.5 M 0.5 522.5 L 1156.5 522.5 M 0.5 546.5 L 1156.5 546.5 M 0.5 558.5 L 1156.5 558.5 M 0.5 570.5 L 1156.5 570.5 M 0.5 582.5 L 1156.5 582.5 M 0.5 606.5 L 1156.5 606.5 M 0.5 618.5 L 1156.5 618.5 M 0.5 630.5 L 1156.5 630.5 M 0.5 642.5 L 1156.5 642.5 M 0.5 665.5 L 1156.5 665.5 M 0.5 677.5 L 1156.5 677.5 M 0.5 689.5 L 1156.5 689.5 M 0.5 701.5 L 1156.5 701.5 M 0.5 725.5 L 1156.5 725.5 M 0.5 737.5 L 1156.5 737.5 M 0.5 749.5 L 1156.5 749.5 M 0.5 761.5 L 1156.5 761.5" stroke-opacity="0.23529411764705882" stroke-linecap="round" stroke-linejoin="round" stroke-miterlimit="10"/><path fill="none" stroke="rgb(0,0,0)" paint-order="fill stroke markers" d=" M 533.5 2.5 L 533.5 764.5" stroke-opacity="1" stroke-miterlimit="10"/><path fill="none" stroke="rgb(0,0,0)" paint-order="fill stroke markers" d=" M 533.5 1.5 L 529.5 5.5" stroke-opacity="1" stroke-miterlimit="10"/><path fill="none" stroke="rgb(0,0,0)" paint-order="fill stroke markers" d=" M 533.5 1.5 L 537.5 5.5" stroke-opacity="1" stroke-miterlimit="10"/><path fill="none" stroke="rgb(0,0,0)" paint-order="fill stroke markers" d=" M 0.5 415.5 L 1154.5 415.5" stroke-opacity="1" stroke-miterlimit="10"/><path fill="none" stroke="rgb(0,0,0)" paint-order="fill stroke markers" d=" M 1155.5 415.5 L 1151.5 411.5" stroke-opacity="1" stroke-miterlimit="10"/><path fill="none" stroke="rgb(0,0,0)" paint-order="fill stroke markers" d=" M 1155.5 415.5 L 1151.5 419.5" stroke-opacity="1" stroke-miterlimit="10"/><text fill="none" stroke="rgb(255,255,255)" font-family="geogebra-sans-serif, sans-serif" font-size="12px" font-style="normal" font-weight="normal" text-decoration="normal" x="48" y="431" text-anchor="start" dominant-baseline="alphabetic" stroke-opacity="1" stroke-linejoin="bevel" stroke-miterlimit="10" stroke-width="3">–16</text><text fill="rgb(0,0,0)" stroke="none" font-family="geogebra-sans-serif, sans-serif" font-size="12px" font-style="normal" font-weight="normal" text-decoration="normal" x="48" y="431" text-anchor="start" dominant-baseline="alphabetic" fill-opacity="1">–16</text><text fill="none" stroke="rgb(255,255,255)" font-family="geogebra-sans-serif, sans-serif" font-size="12px" font-style="normal" font-weight="normal" text-decoration="normal" x="108" y="431" text-anchor="start" dominant-baseline="alphabetic" stroke-opacity="1" stroke-linejoin="bevel" stroke-miterlimit="10" stroke-width="3">–14</text><text fill="rgb(0,0,0)" stroke="none" font-family="geogebra-sans-serif, sans-serif" font-size="12px" font-style="normal" font-weight="normal" text-decoration="normal" x="108" y="431" text-anchor="start" dominant-baseline="alphabetic" fill-opacity="1">–14</text><text fill="none" stroke="rgb(255,255,255)" font-family="geogebra-sans-serif, sans-serif" font-size="12px" font-style="normal" font-weight="normal" text-decoration="normal" x="167" y="431" text-anchor="start" dominant-baseline="alphabetic" stroke-opacity="1" stroke-linejoin="bevel" stroke-miterlimit="10" stroke-width="3">–12</text><text fill="rgb(0,0,0)" stroke="none" font-family="geogebra-sans-serif, sans-serif" font-size="12px" font-style="normal" font-weight="normal" text-decoration="normal" x="167" y="431" text-anchor="start" dominant-baseline="alphabetic" fill-opacity="1">–12</text><text fill="none" stroke="rgb(255,255,255)" font-family="geogebra-sans-serif, sans-serif" font-size="12px" font-style="normal" font-weight="normal" text-decoration="normal" x="227" y="431" text-anchor="start" dominant-baseline="alphabetic" stroke-opacity="1" stroke-linejoin="bevel" stroke-miterlimit="10" stroke-width="3">–10</text><text fill="rgb(0,0,0)" stroke="none" font-family="geogebra-sans-serif, sans-serif" font-size="12px" font-style="normal" font-weight="normal" text-decoration="normal" x="227" y="431" text-anchor="start" dominant-baseline="alphabetic" fill-opacity="1">–10</text><text fill="none" stroke="rgb(255,255,255)" font-family="geogebra-sans-serif, sans-serif" font-size="12px" font-style="normal" font-weight="normal" text-decoration="normal" x="289" y="431" text-anchor="start" dominant-baseline="alphabetic" stroke-opacity="1" stroke-linejoin="bevel" stroke-miterlimit="10" stroke-width="3">–8</text><text fill="rgb(0,0,0)" stroke="none" font-family="geogebra-sans-serif, sans-serif" font-size="12px" font-style="normal" font-weight="normal" text-decoration="normal" x="289" y="431" text-anchor="start" dominant-baseline="alphabetic" fill-opacity="1">–8</text><text fill="none" stroke="rgb(255,255,255)" font-family="geogebra-sans-serif, sans-serif" font-size="12px" font-style="normal" font-weight="normal" text-decoration="normal" x="349" y="431" text-anchor="start" dominant-baseline="alphabetic" stroke-opacity="1" stroke-linejoin="bevel" stroke-miterlimit="10" stroke-width="3">–6</text><text fill="rgb(0,0,0)" stroke="none" font-family="geogebra-sans-serif, sans-serif" font-size="12px" font-style="normal" font-weight="normal" text-decoration="normal" x="349" y="431" text-anchor="start" dominant-baseline="alphabetic" fill-opacity="1">–6</text><text fill="none" stroke="rgb(255,255,255)" font-family="geogebra-sans-serif, sans-serif" font-size="12px" font-style="normal" font-weight="normal" text-decoration="normal" x="409" y="431" text-anchor="start" dominant-baseline="alphabetic" stroke-opacity="1" stroke-linejoin="bevel" stroke-miterlimit="10" stroke-width="3">–4</text><text fill="rgb(0,0,0)" stroke="none" font-family="geogebra-sans-serif, sans-serif" font-size="12px" font-style="normal" font-weight="normal" text-decoration="normal" x="409" y="431" text-anchor="start" dominant-baseline="alphabetic" fill-opacity="1">–4</text><text fill="none" stroke="rgb(255,255,255)" font-family="geogebra-sans-serif, sans-serif" font-size="12px" font-style="normal" font-weight="normal" text-decoration="normal" x="468" y="431" text-anchor="start" dominant-baseline="alphabetic" stroke-opacity="1" stroke-linejoin="bevel" stroke-miterlimit="10" stroke-width="3">–2</text><text fill="rgb(0,0,0)" stroke="none" font-family="geogebra-sans-serif, sans-serif" font-size="12px" font-style="normal" font-weight="normal" text-decoration="normal" x="468" y="431" text-anchor="start" dominant-baseline="alphabetic" fill-opacity="1">–2</text><text fill="none" stroke="rgb(255,255,255)" font-family="geogebra-sans-serif, sans-serif" font-size="12px" font-style="normal" font-weight="normal" text-decoration="normal" x="591" y="431" text-anchor="start" dominant-baseline="alphabetic" stroke-opacity="1" stroke-linejoin="bevel" stroke-miterlimit="10" stroke-width="3">2</text><text fill="rgb(0,0,0)" stroke="none" font-family="geogebra-sans-serif, sans-serif" font-size="12px" font-style="normal" font-weight="normal" text-decoration="normal" x="591" y="431" text-anchor="start" dominant-baseline="alphabetic" fill-opacity="1">2</text><text fill="none" stroke="rgb(255,255,255)" font-family="geogebra-sans-serif, sans-serif" font-size="12px" font-style="normal" font-weight="normal" text-decoration="normal" x="650" y="431" text-anchor="start" dominant-baseline="alphabetic" stroke-opacity="1" stroke-linejoin="bevel" stroke-miterlimit="10" stroke-width="3">4</text><text fill="rgb(0,0,0)" stroke="none" font-family="geogebra-sans-serif, sans-serif" font-size="12px" font-style="normal" font-weight="normal" text-decoration="normal" x="650" y="431" text-anchor="start" dominant-baseline="alphabetic" fill-opacity="1">4</text><text fill="none" stroke="rgb(255,255,255)" font-family="geogebra-sans-serif, sans-serif" font-size="12px" font-style="normal" font-weight="normal" text-decoration="normal" x="710" y="431" text-anchor="start" dominant-baseline="alphabetic" stroke-opacity="1" stroke-linejoin="bevel" stroke-miterlimit="10" stroke-width="3">6</text><text fill="rgb(0,0,0)" stroke="none" font-family="geogebra-sans-serif, sans-serif" font-size="12px" font-style="normal" font-weight="normal" text-decoration="normal" x="710" y="431" text-anchor="start" dominant-baseline="alphabetic" fill-opacity="1">6</text><text fill="none" stroke="rgb(255,255,255)" font-family="geogebra-sans-serif, sans-serif" font-size="12px" font-style="normal" font-weight="normal" text-decoration="normal" x="769" y="431" text-anchor="start" dominant-baseline="alphabetic" stroke-opacity="1" stroke-linejoin="bevel" stroke-miterlimit="10" stroke-width="3">8</text><text fill="rgb(0,0,0)" stroke="none" font-family="geogebra-sans-serif, sans-serif" font-size="12px" font-style="normal" font-weight="normal" text-decoration="normal" x="769" y="431" text-anchor="start" dominant-baseline="alphabetic" fill-opacity="1">8</text><text fill="none" stroke="rgb(255,255,255)" font-family="geogebra-sans-serif, sans-serif" font-size="12px" font-style="normal" font-weight="normal" text-decoration="normal" x="826" y="431" text-anchor="start" dominant-baseline="alphabetic" stroke-opacity="1" stroke-linejoin="bevel" stroke-miterlimit="10" stroke-width="3">10</text><text fill="rgb(0,0,0)" stroke="none" font-family="geogebra-sans-serif, sans-serif" font-size="12px" font-style="normal" font-weight="normal" text-decoration="normal" x="826" y="431" text-anchor="start" dominant-baseline="alphabetic" fill-opacity="1">10</text><text fill="none" stroke="rgb(255,255,255)" font-family="geogebra-sans-serif, sans-serif" font-size="12px" font-style="normal" font-weight="normal" text-decoration="normal" x="886" y="431" text-anchor="start" dominant-baseline="alphabetic" stroke-opacity="1" stroke-linejoin="bevel" stroke-miterlimit="10" stroke-width="3">12</text><text fill="rgb(0,0,0)" stroke="none" font-family="geogebra-sans-serif, sans-serif" font-size="12px" font-style="normal" font-weight="normal" text-decoration="normal" x="886" y="431" text-anchor="start" dominant-baseline="alphabetic" fill-opacity="1">12</text><text fill="none" stroke="rgb(255,255,255)" font-family="geogebra-sans-serif, sans-serif" font-size="12px" font-style="normal" font-weight="normal" text-decoration="normal" x="945" y="431" text-anchor="start" dominant-baseline="alphabetic" stroke-opacity="1" stroke-linejoin="bevel" stroke-miterlimit="10" stroke-width="3">14</text><text fill="rgb(0,0,0)" stroke="none" font-family="geogebra-sans-serif, sans-serif" font-size="12px" font-style="normal" font-weight="normal" text-decoration="normal" x="945" y="431" text-anchor="start" dominant-baseline="alphabetic" fill-opacity="1">14</text><text fill="none" stroke="rgb(255,255,255)" font-family="geogebra-sans-serif, sans-serif" font-size="12px" font-style="normal" font-weight="normal" text-decoration="normal" x="1005" y="431" text-anchor="start" dominant-baseline="alphabetic" stroke-opacity="1" stroke-linejoin="bevel" stroke-miterlimit="10" stroke-width="3">16</text><text fill="rgb(0,0,0)" stroke="none" font-family="geogebra-sans-serif, sans-serif" font-size="12px" font-style="normal" font-weight="normal" text-decoration="normal" x="1005" y="431" text-anchor="start" dominant-baseline="alphabetic" fill-opacity="1">16</text><text fill="none" stroke="rgb(255,255,255)" font-family="geogebra-sans-serif, sans-serif" font-size="12px" font-style="normal" font-weight="normal" text-decoration="normal" x="1064" y="431" text-anchor="start" dominant-baseline="alphabetic" stroke-opacity="1" stroke-linejoin="bevel" stroke-miterlimit="10" stroke-width="3">18</text><text fill="rgb(0,0,0)" stroke="none" font-family="geogebra-sans-serif, sans-serif" font-size="12px" font-style="normal" font-weight="normal" text-decoration="normal" x="1064" y="431" text-anchor="start" dominant-baseline="alphabetic" fill-opacity="1">18</text><text fill="none" stroke="rgb(255,255,255)" font-family="geogebra-sans-serif, sans-serif" font-size="12px" font-style="normal" font-weight="normal" text-decoration="normal" x="1124" y="431" text-anchor="start" dominant-baseline="alphabetic" stroke-opacity="1" stroke-linejoin="bevel" stroke-miterlimit="10" stroke-width="3">20</text><text fill="rgb(0,0,0)" stroke="none" font-family="geogebra-sans-serif, sans-serif" font-size="12px" font-style="normal" font-weight="normal" text-decoration="normal" x="1124" y="431" text-anchor="start" dominant-baseline="alphabetic" fill-opacity="1">20</text><text fill="none" stroke="rgb(255,255,255)" font-family="geogebra-sans-serif, sans-serif" font-size="12px" font-style="normal" font-weight="normal" text-decoration="normal" x="506" y="718" text-anchor="start" dominant-baseline="alphabetic" stroke-opacity="1" stroke-linejoin="bevel" stroke-miterlimit="10" stroke-width="3">–10</text><text fill="rgb(0,0,0)" stroke="none" font-family="geogebra-sans-serif, sans-serif" font-size="12px" font-style="normal" font-weight="normal" text-decoration="normal" x="506" y="718" text-anchor="start" dominant-baseline="alphabetic" fill-opacity="1">–10</text><text fill="none" stroke="rgb(255,255,255)" font-family="geogebra-sans-serif, sans-serif" font-size="12px" font-style="normal" font-weight="normal" text-decoration="normal" x="513" y="658" text-anchor="start" dominant-baseline="alphabetic" stroke-opacity="1" stroke-linejoin="bevel" stroke-miterlimit="10" stroke-width="3">–8</text><text fill="rgb(0,0,0)" stroke="none" font-family="geogebra-sans-serif, sans-serif" font-size="12px" font-style="normal" font-weight="normal" text-decoration="normal" x="513" y="658" text-anchor="start" dominant-baseline="alphabetic" fill-opacity="1">–8</text><text fill="none" stroke="rgb(255,255,255)" font-family="geogebra-sans-serif, sans-serif" font-size="12px" font-style="normal" font-weight="normal" text-decoration="normal" x="513" y="599" text-anchor="start" dominant-baseline="alphabetic" stroke-opacity="1" stroke-linejoin="bevel" stroke-miterlimit="10" stroke-width="3">–6</text><text fill="rgb(0,0,0)" stroke="none" font-family="geogebra-sans-serif, sans-serif" font-size="12px" font-style="normal" font-weight="normal" text-decoration="normal" x="513" y="599" text-anchor="start" dominant-baseline="alphabetic" fill-opacity="1">–6</text><text fill="none" stroke="rgb(255,255,255)" font-family="geogebra-sans-serif, sans-serif" font-size="12px" font-style="normal" font-weight="normal" text-decoration="normal" x="513" y="539" text-anchor="start" dominant-baseline="alphabetic" stroke-opacity="1" stroke-linejoin="bevel" stroke-miterlimit="10" stroke-width="3">–4</text><text fill="rgb(0,0,0)" stroke="none" font-family="geogebra-sans-serif, sans-serif" font-size="12px" font-style="normal" font-weight="normal" text-decoration="normal" x="513" y="539" text-anchor="start" dominant-baseline="alphabetic" fill-opacity="1">–4</text><text fill="none" stroke="rgb(255,255,255)" font-family="geogebra-sans-serif, sans-serif" font-size="12px" font-style="normal" font-weight="normal" text-decoration="normal" x="513" y="480" text-anchor="start" dominant-baseline="alphabetic" stroke-opacity="1" stroke-linejoin="bevel" stroke-miterlimit="10" stroke-width="3">–2</text><text fill="rgb(0,0,0)" stroke="none" font-family="geogebra-sans-serif, sans-serif" font-size="12px" font-style="normal" font-weight="normal" text-decoration="normal" x="513" y="480" text-anchor="start" dominant-baseline="alphabetic" fill-opacity="1">–2</text><text fill="none" stroke="rgb(255,255,255)" font-family="geogebra-sans-serif, sans-serif" font-size="12px" font-style="normal" font-weight="normal" text-decoration="normal" x="520" y="360" text-anchor="start" dominant-baseline="alphabetic" stroke-opacity="1" stroke-linejoin="bevel" stroke-miterlimit="10" stroke-width="3">2</text><text fill="rgb(0,0,0)" stroke="none" font-family="geogebra-sans-serif, sans-serif" font-size="12px" font-style="normal" font-weight="normal" text-decoration="normal" x="520" y="360" text-anchor="start" dominant-baseline="alphabetic" fill-opacity="1">2</text><text fill="none" stroke="rgb(255,255,255)" font-family="geogebra-sans-serif, sans-serif" font-size="12px" font-style="normal" font-weight="normal" text-decoration="normal" x="520" y="301" text-anchor="start" dominant-baseline="alphabetic" stroke-opacity="1" stroke-linejoin="bevel" stroke-miterlimit="10" stroke-width="3">4</text><text fill="rgb(0,0,0)" stroke="none" font-family="geogebra-sans-serif, sans-serif" font-size="12px" font-style="normal" font-weight="normal" text-decoration="normal" x="520" y="301" text-anchor="start" dominant-baseline="alphabetic" fill-opacity="1">4</text><text fill="none" stroke="rgb(255,255,255)" font-family="geogebra-sans-serif, sans-serif" font-size="12px" font-style="normal" font-weight="normal" text-decoration="normal" x="520" y="241" text-anchor="start" dominant-baseline="alphabetic" stroke-opacity="1" stroke-linejoin="bevel" stroke-miterlimit="10" stroke-width="3">6</text><text fill="rgb(0,0,0)" stroke="none" font-family="geogebra-sans-serif, sans-serif" font-size="12px" font-style="normal" font-weight="normal" text-decoration="normal" x="520" y="241" text-anchor="start" dominant-baseline="alphabetic" fill-opacity="1">6</text><text fill="none" stroke="rgb(255,255,255)" font-family="geogebra-sans-serif, sans-serif" font-size="12px" font-style="normal" font-weight="normal" text-decoration="normal" x="520" y="182" text-anchor="start" dominant-baseline="alphabetic" stroke-opacity="1" stroke-linejoin="bevel" stroke-miterlimit="10" stroke-width="3">8</text><text fill="rgb(0,0,0)" stroke="none" font-family="geogebra-sans-serif, sans-serif" font-size="12px" font-style="normal" font-weight="normal" text-decoration="normal" x="520" y="182" text-anchor="start" dominant-baseline="alphabetic" fill-opacity="1">8</text><text fill="none" stroke="rgb(255,255,255)" font-family="geogebra-sans-serif, sans-serif" font-size="12px" font-style="normal" font-weight="normal" text-decoration="normal" x="513" y="122" text-anchor="start" dominant-baseline="alphabetic" stroke-opacity="1" stroke-linejoin="bevel" stroke-miterlimit="10" stroke-width="3">10</text><text fill="rgb(0,0,0)" stroke="none" font-family="geogebra-sans-serif, sans-serif" font-size="12px" font-style="normal" font-weight="normal" text-decoration="normal" x="513" y="122" text-anchor="start" dominant-baseline="alphabetic" fill-opacity="1">10</text><text fill="none" stroke="rgb(255,255,255)" font-family="geogebra-sans-serif, sans-serif" font-size="12px" font-style="normal" font-weight="normal" text-decoration="normal" x="513" y="62" text-anchor="start" dominant-baseline="alphabetic" stroke-opacity="1" stroke-linejoin="bevel" stroke-miterlimit="10" stroke-width="3">12</text><text fill="rgb(0,0,0)" stroke="none" font-family="geogebra-sans-serif, sans-serif" font-size="12px" font-style="normal" font-weight="normal" text-decoration="normal" x="513" y="62" text-anchor="start" dominant-baseline="alphabetic" fill-opacity="1">12</text><text fill="none" stroke="rgb(255,255,255)" font-family="geogebra-sans-serif, sans-serif" font-size="12px" font-style="normal" font-weight="normal" text-decoration="normal" x="520" y="431" text-anchor="start" dominant-baseline="alphabetic" stroke-opacity="1" stroke-linejoin="bevel" stroke-miterlimit="10" stroke-width="3">0</text><text fill="rgb(0,0,0)" stroke="none" font-family="geogebra-sans-serif, sans-serif" font-size="12px" font-style="normal" font-weight="normal" text-decoration="normal" x="520" y="431" text-anchor="start" dominant-baseline="alphabetic" fill-opacity="1">0</text><path fill="none" stroke="rgb(0,0,0)" paint-order="fill stroke markers" d=" M 414.2139184846727 475.1312674291696 L 652.6425364332446 475.1312674291696" stroke-opacity="0.6980392156862745" stroke-linecap="round" stroke-linejoin="round" stroke-miterlimit="10" stroke-width="2.5"/><path fill="none" stroke="rgb(0,0,0)" paint-order="fill stroke markers" d=" M 414.2139184846727 475.1312674291696 L 414.2139184846727 296.30980396774055" stroke-opacity="0.6980392156862745" stroke-linecap="round" stroke-linejoin="round" stroke-miterlimit="10" stroke-width="2.5"/><path fill="none" stroke="rgb(0,0,0)" paint-order="fill stroke markers" d=" M 414.2139184846727 296.30980396774055 L 652.6425364332446 296.30980396774055" stroke-opacity="0.6980392156862745" stroke-linecap="round" stroke-linejoin="round" stroke-miterlimit="10" stroke-width="2.5"/><path fill="none" stroke="rgb(0,0,0)" paint-order="fill stroke markers" d=" M 652.6425364332446 296.30980396774055 L 652.6425364332446 475.1312674291696" stroke-opacity="0.6980392156862745" stroke-linecap="round" stroke-linejoin="round" stroke-miterlimit="10" stroke-width="2.5"/><path fill="rgb(21,101,192)" stroke="none" paint-order="stroke fill markers" d=" M 419.2139184846727 475.1312674291696 C 419.2139184846727 477.89269117832356 416.97534223382667 480.1312674291696 414.2139184846727 480.1312674291696 C 411.45249473551877 480.1312674291696 409.2139184846727 477.89269117832356 409.2139184846727 475.1312674291696 C 409.2139184846727 472.36984368001566 411.45249473551877 470.1312674291696 414.2139184846727 470.1312674291696 C 416.97534223382667 470.1312674291696 419.2139184846727 472.36984368001566 419.2139184846727 475.1312674291696 Z" fill-opacity="1"/><path fill="none" stroke="rgb(0,0,0)" paint-order="fill stroke markers" d=" M 419.2139184846727 475.1312674291696 C 419.2139184846727 477.89269117832356 416.97534223382667 480.1312674291696 414.2139184846727 480.1312674291696 C 411.45249473551877 480.1312674291696 409.2139184846727 477.89269117832356 409.2139184846727 475.1312674291696 C 409.2139184846727 472.36984368001566 411.45249473551877 470.1312674291696 414.2139184846727 470.1312674291696 C 416.97534223382667 470.1312674291696 419.2139184846727 472.36984368001566 419.2139184846727 475.1312674291696 Z" stroke-opacity="1" stroke-linecap="round" stroke-linejoin="round" stroke-miterlimit="10"/><text fill="none" stroke="rgb(255,255,255)" font-family="geogebra-sans-serif, sans-serif" font-size="16px" font-style="normal" font-weight="normal" text-decoration="normal" x="418" y="465" text-anchor="start" dominant-baseline="alphabetic" stroke-opacity="1" stroke-linecap="round" stroke-linejoin="bevel" stroke-miterlimit="10" stroke-width="3">A</text><text fill="rgb(21,101,192)" stroke="none" font-family="geogebra-sans-serif, sans-serif" font-size="16px" font-style="normal" font-weight="normal" text-decoration="normal" x="418" y="465" text-anchor="start" dominant-baseline="alphabetic" fill-opacity="1">A</text><path fill="rgb(21,101,192)" stroke="none" paint-order="stroke fill markers" d=" M 657.6425364332446 475.1312674291696 C 657.6425364332446 477.89269117832356 655.4039601823986 480.1312674291696 652.6425364332446 480.1312674291696 C 649.8811126840906 480.1312674291696 647.6425364332446 477.89269117832356 647.6425364332446 475.1312674291696 C 647.6425364332446 472.36984368001566 649.8811126840906 470.1312674291696 652.6425364332446 470.1312674291696 C 655.4039601823986 470.1312674291696 657.6425364332446 472.36984368001566 657.6425364332446 475.1312674291696 Z" fill-opacity="1"/><path fill="none" stroke="rgb(0,0,0)" paint-order="fill stroke markers" d=" M 657.6425364332446 475.1312674291696 C 657.6425364332446 477.89269117832356 655.4039601823986 480.1312674291696 652.6425364332446 480.1312674291696 C 649.8811126840906 480.1312674291696 647.6425364332446 477.89269117832356 647.6425364332446 475.1312674291696 C 647.6425364332446 472.36984368001566 649.8811126840906 470.1312674291696 652.6425364332446 470.1312674291696 C 655.4039601823986 470.1312674291696 657.6425364332446 472.36984368001566 657.6425364332446 475.1312674291696 Z" stroke-opacity="1" stroke-linecap="round" stroke-linejoin="round" stroke-miterlimit="10"/><text fill="none" stroke="rgb(255,255,255)" font-family="geogebra-sans-serif, sans-serif" font-size="16px" font-style="normal" font-weight="normal" text-decoration="normal" x="657" y="465" text-anchor="start" dominant-baseline="alphabetic" stroke-opacity="1" stroke-linecap="round" stroke-linejoin="bevel" stroke-miterlimit="10" stroke-width="3">B</text><text fill="rgb(21,101,192)" stroke="none" font-family="geogebra-sans-serif, sans-serif" font-size="16px" font-style="normal" font-weight="normal" text-decoration="normal" x="657" y="465" text-anchor="start" dominant-baseline="alphabetic" fill-opacity="1">B</text><path fill="rgb(21,101,192)" stroke="none" paint-order="stroke fill markers" d=" M 419.2139184846727 296.30980396774055 C 419.2139184846727 299.0712277168945 416.97534223382667 301.30980396774055 414.2139184846727 301.30980396774055 C 411.45249473551877 301.30980396774055 409.2139184846727 299.0712277168945 409.2139184846727 296.30980396774055 C 409.2139184846727 293.5483802185866 411.45249473551877 291.30980396774055 414.2139184846727 291.30980396774055 C 416.97534223382667 291.30980396774055 419.2139184846727 293.5483802185866 419.2139184846727 296.30980396774055 Z" fill-opacity="1"/><path fill="none" stroke="rgb(0,0,0)" paint-order="fill stroke markers" d=" M 419.2139184846727 296.30980396774055 C 419.2139184846727 299.0712277168945 416.97534223382667 301.30980396774055 414.2139184846727 301.30980396774055 C 411.45249473551877 301.30980396774055 409.2139184846727 299.0712277168945 409.2139184846727 296.30980396774055 C 409.2139184846727 293.5483802185866 411.45249473551877 291.30980396774055 414.2139184846727 291.30980396774055 C 416.97534223382667 291.30980396774055 419.2139184846727 293.5483802185866 419.2139184846727 296.30980396774055 Z" stroke-opacity="1" stroke-linecap="round" stroke-linejoin="round" stroke-miterlimit="10"/><text fill="none" stroke="rgb(255,255,255)" font-family="geogebra-sans-serif, sans-serif" font-size="16px" font-style="normal" font-weight="normal" text-decoration="normal" x="418" y="286" text-anchor="start" dominant-baseline="alphabetic" stroke-opacity="1" stroke-linecap="round" stroke-linejoin="bevel" stroke-miterlimit="10" stroke-width="3">C</text><text fill="rgb(21,101,192)" stroke="none" font-family="geogebra-sans-serif, sans-serif" font-size="16px" font-style="normal" font-weight="normal" text-decoration="normal" x="418" y="286" text-anchor="start" dominant-baseline="alphabetic" fill-opacity="1">C</text><path fill="rgb(21,101,192)" stroke="none" paint-order="stroke fill markers" d=" M 657.6425364332446 296.30980396774055 C 657.6425364332446 299.0712277168945 655.4039601823986 301.30980396774055 652.6425364332446 301.30980396774055 C 649.8811126840906 301.30980396774055 647.6425364332446 299.0712277168945 647.6425364332446 296.30980396774055 C 647.6425364332446 293.5483802185866 649.8811126840906 291.30980396774055 652.6425364332446 291.30980396774055 C 655.4039601823986 291.30980396774055 657.6425364332446 293.5483802185866 657.6425364332446 296.30980396774055 Z" fill-opacity="1"/><path fill="none" stroke="rgb(0,0,0)" paint-order="fill stroke markers" d=" M 657.6425364332446 296.30980396774055 C 657.6425364332446 299.0712277168945 655.4039601823986 301.30980396774055 652.6425364332446 301.30980396774055 C 649.8811126840906 301.30980396774055 647.6425364332446 299.0712277168945 647.6425364332446 296.30980396774055 C 647.6425364332446 293.5483802185866 649.8811126840906 291.30980396774055 652.6425364332446 291.30980396774055 C 655.4039601823986 291.30980396774055 657.6425364332446 293.5483802185866 657.6425364332446 296.30980396774055 Z" stroke-opacity="1" stroke-linecap="round" stroke-linejoin="round" stroke-miterlimit="10"/><text fill="none" stroke="rgb(255,255,255)" font-family="geogebra-sans-serif, sans-serif" font-size="16px" font-style="normal" font-weight="normal" text-decoration="normal" x="657" y="286" text-anchor="start" dominant-baseline="alphabetic" stroke-opacity="1" stroke-linecap="round" stroke-linejoin="bevel" stroke-miterlimit="10" stroke-width="3">D</text><text fill="rgb(21,101,192)" stroke="none" font-family="geogebra-sans-serif, sans-serif" font-size="16px" font-style="normal" font-weight="normal" text-decoration="normal" x="657" y="286" text-anchor="start" dominant-baseline="alphabetic" fill-opacity="1">D</text></g></g></svg>